<?xml version="1.0" encoding="iso-8859-1"?>
<!-- Generator: Adobe Illustrator 19.0.0, SVG Export Plug-In . SVG Version: 6.00 Build 0)  -->
<svg version="1.1" id="Capa_1" xmlns="http://www.w3.org/2000/svg" xmlns:xlink="http://www.w3.org/1999/xlink" x="0px" y="0px"
	 viewBox="0 0 474.48 474.48" style="enable-background:new 0 0 474.48 474.48;" xml:space="preserve">
<g>
	<g>
		<path d="M302.96,103.085c-7.787-4.003-16.446-6.01-25.2-5.84H45.28c-28.32,0-45.28,16.96-45.28,45.36v127.36
			c0,24,10.8,35.2,19.84,40.64c7.926,4.548,16.944,6.844,26.08,6.64h232c34.72,0,47.04-24,47.04-47.04v-125.92
			C324.88,119.885,312.96,108.445,302.96,103.085z M175.28,293.885h-26c-4.418,0-8-3.582-8-8s3.582-8,8-8h26c4.418,0,8,3.582,8,8
			S179.698,293.885,175.28,293.885z M294,263.005c0,4.418-3.582,8-8,8H38.96c-4.418,0-8-3.582-8-8v-129.76c0-4.418,3.582-8,8-8H286
			c4.418,0,8,3.582,8,8V263.005z"/>
	</g>
</g>
<g>
	<g>
		<path d="M457.28,97.245h-92c-9.499,0-17.2,7.701-17.2,17.2v18h126.4v-18C474.48,104.946,466.779,97.245,457.28,97.245z"/>
	</g>
</g>
<g>
	<g>
		<path d="M458.48,186.445H348.16v148.64c0,9.468,7.652,17.156,17.12,17.2h92c9.499,0,17.2-7.701,17.2-17.2c0,0,0,0,0,0v-148.64
			H458.48z M411.28,255.005h0.08c6.186,0,11.2,5.014,11.2,11.2c0,6.186-5.014,11.2-11.2,11.2s-11.2-5.014-11.2-11.2
			C400.16,260.051,405.126,255.049,411.28,255.005z M439.04,308.445h-55.52c-4.418,0-8-3.582-8-8s3.582-8,8-8h55.52
			c4.418,0,8,3.582,8,8S443.458,308.445,439.04,308.445z"/>
	</g>
</g>
<g>
	<g>
		<polygon points="466.48,148.445 458.48,148.445 364.16,148.445 356.16,148.445 348.16,148.445 348.16,170.445 356.16,170.445 
			364.16,170.445 458.48,170.445 466.48,170.445 474.48,170.445 474.48,148.445 		"/>
	</g>
</g>
<g>
	<g>
		<path d="M218.16,361.245h-15.04v-30.24c0-4.418-3.582-8-8-8h-65.28c-4.418,0-8,3.582-8,8v30.24H106.8c-4.418,0-8,3.582-8,8
			s3.582,8,8,8h111.36c4.418,0,8-3.582,8-8S222.578,361.245,218.16,361.245z"/>
	</g>
</g>
<g>
</g>
<g>
</g>
<g>
</g>
<g>
</g>
<g>
</g>
<g>
</g>
<g>
</g>
<g>
</g>
<g>
</g>
<g>
</g>
<g>
</g>
<g>
</g>
<g>
</g>
<g>
</g>
<g>
</g>
</svg>
